<svg width="255" height="37" fill="none" xmlns="http://www.w3.org/2000/svg"><path d="M23.732 24.624c.48-.048.888.096 1.224.432.36.312.54.708.54 1.188s-.18.876-.54 1.188a1.608 1.608 0 0 1-1.224.432c-.096-.024-.48-.072-1.152-.144a18.259 18.259 0 0 0-1.944-.108c-1.032 0-1.824-.432-2.376-1.296l-5.976-9.108c-.072-.144-.204-.216-.396-.216h-4.32c-.216 0-.324.108-.324.324v7.164c0 .192.084.288.252.288.312 0 .612-.012.9-.036.288-.048.576-.084.864-.108.48-.048.888.096 1.224.432.336.312.504.708.504 1.188s-.168.876-.504 1.188a1.608 1.608 0 0 1-1.224.432c-.672-.072-1.272-.132-1.8-.18a31.042 31.042 0 0 0-2.952 0c-.504.048-1.104.108-1.8.18-.48.024-.9-.12-1.26-.432-.336-.312-.504-.708-.504-1.188s.156-.864.468-1.152a1.566 1.566 0 0 1 1.152-.468c.168 0 .336.012.504.036.192.024.396.048.612.072h.072c.168 0 .252-.096.252-.288V4.032c0-.24-.108-.336-.324-.288l-.864.072a1.598 1.598 0 0 1-1.296-.36 1.605 1.605 0 0 1-.576-1.26c0-.528.18-.948.54-1.26A1.7 1.7 0 0 1 2.816.504c.48.072.972.144 1.476.216.528.048 1.032.072 1.512.072l6.588.036c3.144.024 5.592.744 7.344 2.16C21.512 4.38 22.4 6.348 22.4 8.892c0 1.992-.552 3.66-1.656 5.004-1.08 1.32-2.616 2.22-4.608 2.7-.264.048-.324.18-.18.396l4.968 7.632c.072.144.216.216.432.216.84-.048 1.632-.12 2.376-.216Zm-10.944-20.7h-5.22c-.216 0-.324.108-.324.324V13.5c0 .216.108.324.324.324h5.22c4.344 0 6.516-1.644 6.516-4.932 0-3.312-2.172-4.968-6.516-4.968Zm30.686 20.772c.072-.024.18-.036.324-.036.408 0 .756.156 1.044.468.288.288.432.66.432 1.116 0 .504-.18.912-.54 1.224a1.36 1.36 0 0 1-1.26.36 8.6 8.6 0 0 0-1.08-.216l-.972-.072c-.48 0-.912-.132-1.296-.396a2.498 2.498 0 0 1-.864-1.008c-.12-.216-.264-.252-.432-.108a8.763 8.763 0 0 1-2.628 1.332c-.936.312-2.04.468-3.312.468-1.68 0-3.06-.48-4.14-1.44-1.08-.984-1.62-2.244-1.62-3.78 0-1.176.288-2.208.864-3.096.576-.912 1.368-1.62 2.376-2.124 1.032-.528 2.232-.792 3.6-.792.72 0 1.464.072 2.232.216.792.144 1.608.384 2.448.72.024 0 .048.012.072.036h.072c.168 0 .252-.096.252-.288v-1.116c0-1.632-.42-2.844-1.26-3.636-.816-.816-1.8-1.224-2.952-1.224-.36 0-.732.048-1.116.144-.36.072-.732.18-1.116.324-.192.072-.252.204-.18.396.024.096.036.18.036.252a.798.798 0 0 1 .036.252c0 .6-.216 1.14-.648 1.62-.432.456-.984.684-1.656.684-.696 0-1.26-.24-1.692-.72a2.622 2.622 0 0 1-.612-1.692c0-.312.06-.624.18-.936.12-.312.3-.6.54-.864A6.613 6.613 0 0 1 31.09 9a8.048 8.048 0 0 1 3.204-.648c2.496 0 4.428.684 5.796 2.052 1.368 1.344 2.052 3.264 2.052 5.76v8.388c0 .216.084.324.252.324.192 0 .372-.024.54-.072.192-.048.372-.084.54-.108Zm-10.584.108c1.32-.048 2.424-.264 3.312-.648.912-.384 1.812-1.02 2.7-1.908a.62.62 0 0 0 .144-.396v-.792a.372.372 0 0 0-.216-.36 14.647 14.647 0 0 0-1.872-.792c-.72-.264-1.692-.396-2.916-.396s-2.184.276-2.88.828c-.696.528-1.044 1.284-1.044 2.268 0 .648.252 1.176.756 1.584.528.408 1.2.612 2.016.612Zm29.15 2.736H50.194c-.48 0-.876-.168-1.188-.504a1.645 1.645 0 0 1-.468-1.152c0-.36.12-.696.36-1.008l9.576-12.708a.631.631 0 0 0 .072-.18c0-.144-.096-.216-.288-.216h-6.588c-.192 0-.288.084-.288.252 0 .216.012.432.036.648.048.192.084.408.108.648.048.48-.096.9-.432 1.26-.312.336-.708.504-1.188.504s-.876-.168-1.188-.504a1.725 1.725 0 0 1-.432-1.26c.048-.36.084-.744.108-1.152.048-.408.084-.804.108-1.188.024-.648.264-1.2.72-1.656a2.2 2.2 0 0 1 1.656-.72h10.8c.48 0 .876.168 1.188.504.312.336.468.732.468 1.188 0 .336-.108.672-.324 1.008L53.4 24.012a.631.631 0 0 0-.072.18c0 .144.096.216.288.216h7.596c.192 0 .288-.084.288-.252 0-.456-.036-.9-.108-1.332-.024-.48.12-.888.432-1.224.312-.36.708-.54 1.188-.54s.876.18 1.188.54c.312.336.444.744.396 1.224-.024.36-.06.744-.108 1.152l-.072 1.188a2.364 2.364 0 0 1-.756 1.692c-.456.456-.996.684-1.62.684Zm22.352-2.844c.072-.024.18-.036.324-.036.408 0 .756.156 1.044.468.288.288.432.66.432 1.116 0 .504-.18.912-.54 1.224a1.36 1.36 0 0 1-1.26.36 8.6 8.6 0 0 0-1.08-.216l-.972-.072c-.48 0-.912-.132-1.296-.396a2.498 2.498 0 0 1-.864-1.008c-.12-.216-.264-.252-.432-.108a8.763 8.763 0 0 1-2.628 1.332c-.936.312-2.04.468-3.312.468-1.68 0-3.06-.48-4.14-1.44-1.08-.984-1.62-2.244-1.62-3.78 0-1.176.288-2.208.864-3.096.576-.912 1.368-1.62 2.376-2.124 1.032-.528 2.232-.792 3.6-.792.72 0 1.464.072 2.232.216.792.144 1.608.384 2.448.72.024 0 .048.012.072.036h.072c.168 0 .252-.096.252-.288v-1.116c0-1.632-.42-2.844-1.26-3.636-.816-.816-1.8-1.224-2.952-1.224-.36 0-.732.048-1.116.144-.36.072-.732.18-1.116.324-.192.072-.252.204-.18.396.024.096.036.18.036.252a.798.798 0 0 1 .036.252c0 .6-.216 1.14-.648 1.62-.432.456-.984.684-1.656.684-.696 0-1.26-.24-1.692-.72a2.622 2.622 0 0 1-.612-1.692c0-.312.06-.624.18-.936.12-.312.3-.6.54-.864A6.613 6.613 0 0 1 72.008 9a8.048 8.048 0 0 1 3.204-.648c2.496 0 4.428.684 5.796 2.052 1.368 1.344 2.052 3.264 2.052 5.76v8.388c0 .216.084.324.252.324.192 0 .372-.024.54-.072.192-.048.372-.084.54-.108Zm-10.584.108c1.32-.048 2.424-.264 3.312-.648.912-.384 1.812-1.02 2.7-1.908a.62.62 0 0 0 .144-.396v-.792a.372.372 0 0 0-.216-.36 14.647 14.647 0 0 0-1.872-.792c-.72-.264-1.692-.396-2.916-.396s-2.184.276-2.88.828c-.696.528-1.044 1.284-1.044 2.268 0 .648.252 1.176.756 1.584.528.408 1.2.612 2.016.612Zm48.294-.18c.48-.048.888.096 1.224.432.36.312.54.708.54 1.188s-.18.876-.54 1.188a1.608 1.608 0 0 1-1.224.432c-.72-.072-1.356-.132-1.908-.18a34.102 34.102 0 0 0-3.168 0c-.528.048-1.14.108-1.836.18a1.675 1.675 0 0 1-1.224-.432c-.336-.312-.504-.708-.504-1.188s.156-.864.468-1.152a1.524 1.524 0 0 1 1.116-.468c.192 0 .372.012.54.036.192.024.372.048.54.072h.072c.12 0 .192-.036.216-.108.024-.096 0-.192-.072-.288l-6.588-10.08c-.12-.192-.264-.204-.432-.036L105.254 18a.55.55 0 0 0-.18.396v6.084c0 .192.084.288.252.288.336 0 .66-.012.972-.036.336-.048.648-.072.936-.072.432 0 .804.156 1.116.468.312.288.468.66.468 1.116 0 .48-.18.876-.54 1.188a1.608 1.608 0 0 1-1.224.432c-.672-.072-1.272-.132-1.8-.18a31.042 31.042 0 0 0-2.952 0c-.504.048-1.104.108-1.8.18a1.675 1.675 0 0 1-1.224-.432c-.336-.312-.504-.708-.504-1.188s.168-.876.504-1.188c.36-.312.768-.444 1.224-.396l1.008.072h.072c.168 0 .252-.096.252-.288V3.888c0-.192-.084-.288-.252-.288-.24 0-.456.024-.648.072a3.823 3.823 0 0 1-.54.036c-.456 0-.84-.156-1.152-.468-.288-.312-.432-.696-.432-1.152 0-.48.168-.876.504-1.188.336-.336.744-.48 1.224-.432.696.072 1.296.132 1.8.18a31.04 31.04 0 0 0 2.952 0c.528-.048 1.128-.108 1.8-.18.48-.048.888.096 1.224.432.36.312.54.708.54 1.188s-.18.876-.54 1.188a1.608 1.608 0 0 1-1.224.432 4.622 4.622 0 0 0-.828-.072l-.864-.072h-.072c-.168 0-.252.096-.252.288v9.576c0 .144.036.24.108.288.096.024.192-.012.288-.108l10.404-9.648c.072-.072.108-.144.108-.216 0-.096-.072-.144-.216-.144-.192 0-.408.024-.648.072-.24.024-.456.036-.648.036-.456 0-.84-.156-1.152-.468a1.566 1.566 0 0 1-.468-1.152c0-.48.168-.876.504-1.188.36-.336.78-.48 1.26-.432.744.072 1.392.132 1.944.18a34.1 34.1 0 0 0 3.168 0c.528-.048 1.128-.108 1.8-.18.48-.048.888.096 1.224.432.336.312.504.708.504 1.188 0 .456-.156.84-.468 1.152-.288.312-.66.468-1.116.468h-.288a1.058 1.058 0 0 0-.252-.036h-.108a.448.448 0 0 0-.324.144l-8.568 7.848c-.168.12-.18.276-.036.468l8.1 12.456c.072.12.168.18.288.18.288 0 .564-.012.828-.036.288-.048.552-.084.792-.108Zm23.42.288c.432-.048.804.072 1.116.36.312.288.468.66.468 1.116 0 .432-.156.78-.468 1.044-.312.288-.684.42-1.116.396a45.674 45.674 0 0 0-1.764-.144 21.55 21.55 0 0 0-2.484 0c-.384.048-.936.096-1.656.144a1.461 1.461 0 0 1-1.116-.396c-.312-.264-.468-.612-.468-1.044 0-.456.156-.828.468-1.116a1.352 1.352 0 0 1 1.116-.36l1.044.072h.072c.168 0 .252-.096.252-.288V14.94c0-1.176-.18-2.016-.54-2.52-.36-.504-.948-.756-1.764-.756-1.944 0-4.116 1.092-6.516 3.276a.59.59 0 0 0-.18.432v9.324c0 .216.108.312.324.288l1.044-.072c.432-.048.804.072 1.116.36.312.288.468.66.468 1.116 0 .432-.156.78-.468 1.044-.312.288-.684.42-1.116.396a45.674 45.674 0 0 0-1.764-.144 20.242 20.242 0 0 0-2.448 0 35.65 35.65 0 0 1-1.692.144 1.461 1.461 0 0 1-1.116-.396c-.312-.264-.468-.612-.468-1.044 0-.456.156-.828.468-1.116a1.352 1.352 0 0 1 1.116-.36l1.08.072c.216 0 .324-.096.324-.288V3.384c0-.192-.084-.288-.252-.288-.24 0-.468.024-.684.072a6.2 6.2 0 0 1-.684.036c-.384 0-.72-.132-1.008-.396a1.465 1.465 0 0 1-.432-1.08c0-.432.156-.792.468-1.08a1.352 1.352 0 0 1 1.116-.36c.336.024.696.06 1.08.108l1.152.072c.648.024 1.2.264 1.656.72a2.2 2.2 0 0 1 .72 1.656v8.46c0 .144.036.24.108.288.096.024.192-.012.288-.108 2.328-2.088 4.572-3.132 6.732-3.132 3.36 0 5.04 2.208 5.04 6.624v9.72c0 .216.108.312.324.288l1.044-.072Zm21.199-.216c.072-.024.18-.036.324-.036.408 0 .756.156 1.044.468.288.288.432.66.432 1.116 0 .504-.18.912-.54 1.224a1.36 1.36 0 0 1-1.26.36 8.6 8.6 0 0 0-1.08-.216l-.972-.072c-.48 0-.912-.132-1.296-.396a2.498 2.498 0 0 1-.864-1.008c-.12-.216-.264-.252-.432-.108a8.763 8.763 0 0 1-2.628 1.332c-.936.312-2.04.468-3.312.468-1.68 0-3.06-.48-4.14-1.44-1.08-.984-1.62-2.244-1.62-3.78 0-1.176.288-2.208.864-3.096.576-.912 1.368-1.62 2.376-2.124 1.032-.528 2.232-.792 3.6-.792.72 0 1.464.072 2.232.216.792.144 1.608.384 2.448.72.024 0 .048.012.072.036h.072c.168 0 .252-.096.252-.288v-1.116c0-1.632-.42-2.844-1.26-3.636-.816-.816-1.8-1.224-2.952-1.224-.36 0-.732.048-1.116.144-.36.072-.732.18-1.116.324-.192.072-.252.204-.18.396.024.096.036.18.036.252a.798.798 0 0 1 .036.252c0 .6-.216 1.14-.648 1.62-.432.456-.984.684-1.656.684-.696 0-1.26-.24-1.692-.72a2.622 2.622 0 0 1-.612-1.692c0-.312.06-.624.18-.936.12-.312.3-.6.54-.864A6.613 6.613 0 0 1 154.337 9a8.048 8.048 0 0 1 3.204-.648c2.496 0 4.428.684 5.796 2.052 1.368 1.344 2.052 3.264 2.052 5.76v8.388c0 .216.084.324.252.324.192 0 .372-.024.54-.072.192-.048.372-.084.54-.108Zm-10.584.108c1.32-.048 2.424-.264 3.312-.648.912-.384 1.812-1.02 2.7-1.908a.62.62 0 0 0 .144-.396v-.792a.372.372 0 0 0-.216-.36 14.647 14.647 0 0 0-1.872-.792c-.72-.264-1.692-.396-2.916-.396s-2.184.276-2.88.828c-.696.528-1.044 1.284-1.044 2.268 0 .648.252 1.176.756 1.584.528.408 1.2.612 2.016.612Zm41.931-16.452c.408-.024.768.108 1.08.396.312.288.468.648.468 1.08 0 .456-.156.828-.468 1.116a1.532 1.532 0 0 1-1.116.36l-.9-.072h-.108c-.12 0-.216.084-.288.252l-4.968 15.084c-.12.384-.348.696-.684.936-.336.24-.708.36-1.116.36-.384 0-.744-.12-1.08-.36a1.776 1.776 0 0 1-.684-.936l-3.816-12.348c-.024-.144-.096-.216-.216-.216-.096 0-.168.072-.216.216l-3.852 12.312c-.12.384-.348.696-.684.936a1.764 1.764 0 0 1-1.116.396c-.408 0-.78-.132-1.116-.396a1.776 1.776 0 0 1-.684-.936l-4.932-15.048c-.072-.216-.204-.3-.396-.252l-.792.072a1.532 1.532 0 0 1-1.116-.36c-.312-.288-.468-.66-.468-1.116 0-.432.156-.792.468-1.08.312-.288.672-.42 1.08-.396.624.048 1.164.096 1.62.144a25.354 25.354 0 0 0 2.7 0c.48-.048 1.032-.096 1.656-.144.408-.024.768.108 1.08.396.312.288.468.648.468 1.08 0 .432-.144.792-.432 1.08-.264.264-.6.396-1.008.396-.24 0-.492-.012-.756-.036-.24-.024-.492-.048-.756-.072h-.072c-.216 0-.288.12-.216.36l3.528 10.836c.048.144.12.216.216.216s.168-.084.216-.252l3.6-12.132c.144-.432.396-.78.756-1.044.36-.288.768-.432 1.224-.432.456 0 .864.144 1.224.432.36.264.612.612.756 1.044l3.6 12.132c.048.144.12.216.216.216.12 0 .192-.072.216-.216l3.492-10.8v-.036c.024-.024.036-.048.036-.072 0-.168-.084-.252-.252-.252-.24 0-.48.024-.72.072-.24.024-.492.036-.756.036-.384 0-.72-.132-1.008-.396a1.465 1.465 0 0 1-.432-1.08c0-.432.156-.792.468-1.08.312-.288.672-.42 1.08-.396.624.048 1.164.096 1.62.144.48.024.936.036 1.368.036.432 0 .888-.012 1.368-.036.48-.048 1.02-.096 1.62-.144Zm20.012 16.344c.072-.024.18-.036.324-.036.408 0 .756.156 1.044.468.288.288.432.66.432 1.116 0 .504-.18.912-.54 1.224a1.36 1.36 0 0 1-1.26.36 8.6 8.6 0 0 0-1.08-.216l-.972-.072c-.48 0-.912-.132-1.296-.396a2.498 2.498 0 0 1-.864-1.008c-.12-.216-.264-.252-.432-.108a8.763 8.763 0 0 1-2.628 1.332c-.936.312-2.04.468-3.312.468-1.68 0-3.06-.48-4.14-1.44-1.08-.984-1.62-2.244-1.62-3.78 0-1.176.288-2.208.864-3.096.576-.912 1.368-1.62 2.376-2.124 1.032-.528 2.232-.792 3.6-.792.72 0 1.464.072 2.232.216.792.144 1.608.384 2.448.72.024 0 .048.012.072.036h.072c.168 0 .252-.096.252-.288v-1.116c0-1.632-.42-2.844-1.26-3.636-.816-.816-1.8-1.224-2.952-1.224-.36 0-.732.048-1.116.144-.36.072-.732.18-1.116.324-.192.072-.252.204-.18.396.024.096.036.18.036.252a.798.798 0 0 1 .036.252c0 .6-.216 1.14-.648 1.62-.432.456-.984.684-1.656.684-.696 0-1.26-.24-1.692-.72a2.622 2.622 0 0 1-.612-1.692c0-.312.06-.624.18-.936.12-.312.3-.6.54-.864A6.613 6.613 0 0 1 205.696 9a8.048 8.048 0 0 1 3.204-.648c2.496 0 4.428.684 5.796 2.052 1.368 1.344 2.052 3.264 2.052 5.76v8.388c0 .216.084.324.252.324.192 0 .372-.024.54-.072.192-.048.372-.084.54-.108Zm-10.584.108c1.32-.048 2.424-.264 3.312-.648.912-.384 1.812-1.02 2.7-1.908a.62.62 0 0 0 .144-.396v-.792a.372.372 0 0 0-.216-.36 14.647 14.647 0 0 0-1.872-.792c-.72-.264-1.692-.396-2.916-.396s-2.184.276-2.88.828c-.696.528-1.044 1.284-1.044 2.268 0 .648.252 1.176.756 1.584.528.408 1.2.612 2.016.612Zm22.561-19.26a2.377 2.377 0 0 1-1.692-.684 2.377 2.377 0 0 1-.684-1.692c0-.648.228-1.2.684-1.656.48-.48 1.044-.72 1.692-.72.648 0 1.2.24 1.656.72a2.2 2.2 0 0 1 .72 1.656c0 .648-.24 1.212-.72 1.692a2.256 2.256 0 0 1-1.656.684Zm-6.12 30.996c-1.128 0-2.16-.252-3.096-.756-.96-.48-1.716-1.128-2.268-1.944-.576-.792-.864-1.632-.864-2.52 0-.192.012-.396.036-.612.024-.192.072-.384.144-.576.192-.6.516-1.044.972-1.332.432-.264.9-.396 1.404-.396.624 0 1.2.216 1.728.648.528.432.792 1.044.792 1.836 0 .624-.228 1.188-.684 1.692-.144.168-.132.324.036.468.264.12.54.216.828.288.312.096.636.144.972.144 1.464 0 2.58-.444 3.348-1.332.792-.888 1.188-2.16 1.188-3.816V11.556c0-.192-.084-.288-.252-.288a6.081 6.081 0 0 0-1.332.144 1.508 1.508 0 0 1-1.188-.36 1.566 1.566 0 0 1-.468-1.152c0-.456.168-.828.504-1.116.336-.312.72-.444 1.152-.396.552.048.984.096 1.296.144.336.048.696.072 1.08.072.648 0 1.2.24 1.656.72a2.2 2.2 0 0 1 .72 1.656v17.352c0 1.632-.324 3.06-.972 4.284-.624 1.248-1.512 2.208-2.664 2.88-1.152.696-2.508 1.044-4.068 1.044Zm29.014-11.844c.072-.024.18-.036.324-.036.408 0 .756.156 1.044.468.288.288.432.66.432 1.116 0 .504-.18.912-.54 1.224a1.36 1.36 0 0 1-1.26.36 8.6 8.6 0 0 0-1.08-.216l-.972-.072c-.48 0-.912-.132-1.296-.396a2.498 2.498 0 0 1-.864-1.008c-.12-.216-.264-.252-.432-.108a8.763 8.763 0 0 1-2.628 1.332c-.936.312-2.04.468-3.312.468-1.68 0-3.06-.48-4.14-1.44-1.08-.984-1.62-2.244-1.62-3.78 0-1.176.288-2.208.864-3.096.576-.912 1.368-1.62 2.376-2.124 1.032-.528 2.232-.792 3.6-.792.72 0 1.464.072 2.232.216.792.144 1.608.384 2.448.72.024 0 .048.012.072.036h.072c.168 0 .252-.096.252-.288v-1.116c0-1.632-.42-2.844-1.26-3.636-.816-.816-1.8-1.224-2.952-1.224-.36 0-.732.048-1.116.144-.36.072-.732.18-1.116.324-.192.072-.252.204-.18.396.024.096.036.18.036.252a.798.798 0 0 1 .036.252c0 .6-.216 1.14-.648 1.62-.432.456-.984.684-1.656.684-.696 0-1.26-.24-1.692-.72a2.622 2.622 0 0 1-.612-1.692c0-.312.06-.624.18-.936.12-.312.3-.6.54-.864A6.613 6.613 0 0 1 240.567 9a8.048 8.048 0 0 1 3.204-.648c2.496 0 4.428.684 5.796 2.052 1.368 1.344 2.052 3.264 2.052 5.76v8.388c0 .216.084.324.252.324.192 0 .372-.024.54-.072.192-.048.372-.084.54-.108Zm-10.584.108c1.32-.048 2.424-.264 3.312-.648.912-.384 1.812-1.02 2.7-1.908a.62.62 0 0 0 .144-.396v-.792a.372.372 0 0 0-.216-.36 14.647 14.647 0 0 0-1.872-.792c-.72-.264-1.692-.396-2.916-.396s-2.184.276-2.88.828c-.696.528-1.044 1.284-1.044 2.268 0 .648.252 1.176.756 1.584.528.408 1.2.612 2.016.612Z" fill="#822AFF"/></svg>